<svg xmlns="http://www.w3.org/2000/svg" viewBox="0 0 256 256">
  <defs>
    <radialGradient id="bg" cx="35%" cy="20%" r="95%">
      <stop offset="0" stop-color="#23170E" />
      <stop offset="1" stop-color="#070707" />
    </radialGradient>
    <linearGradient id="medal" x1="0" y1="0" x2="1" y2="1">
      <stop offset="0" stop-color="#FFE8BE" />
      <stop offset="0.52" stop-color="#E1B16E" />
      <stop offset="1" stop-color="#9D6029" />
    </linearGradient>
    <linearGradient id="bean" x1="0" y1="0" x2="1" y2="1">
      <stop offset="0" stop-color="#2E2E2E" />
      <stop offset="0.45" stop-color="#0F0F0F" />
      <stop offset="1" stop-color="#000000" />
    </linearGradient>
  </defs>

  <rect width="256" height="256" rx="62" fill="url(#bg)" />
  <rect x="14" y="14" width="228" height="228" rx="54" fill="#FFFFFF08" stroke="#FFFFFF24" stroke-width="2" />

  <circle cx="128" cy="128" r="92" fill="#0A0A0A" stroke="url(#medal)" stroke-width="10" />
  <circle cx="128" cy="128" r="80" fill="#FFFFFF08" />

  <g transform="rotate(-16 128 128)">
    <ellipse cx="128" cy="130" rx="50" ry="70" fill="url(#bean)" stroke="#FFFFFF26" stroke-width="2" />
    <path d="M120 65C97 95 95 141 113 176C121 191 132 195 142 187C128 154 128 109 145 80C149 73 143 62 134 61C129 60 124 62 120 65Z" fill="#B07D46CC" />
    <path d="M117 68C98 97 96 139 114 172" fill="none" stroke="#FFE0AECC" stroke-width="4" stroke-linecap="round" />
    <path d="M101 90C95 108 95 127 100 145" fill="none" stroke="#FFFFFF3B" stroke-width="3" stroke-linecap="round" />
  </g>

  <path d="M184 72l7 8 9 1-7 6 2 9-8-5-8 5 2-9-7-6 9-1z" fill="#F7E6C4" opacity="0.95" />
</svg>
