<svg xmlns="http://www.w3.org/2000/svg" viewBox="0 0 256 256">
  <defs>
    <linearGradient id="bg" x1="0" y1="0" x2="1" y2="1">
      <stop offset="0" stop-color="#18110A" />
      <stop offset="1" stop-color="#070707" />
    </linearGradient>
    <linearGradient id="ring" x1="0" y1="0" x2="1" y2="1">
      <stop offset="0" stop-color="#F8E7C5" />
      <stop offset="1" stop-color="#BD9256" />
    </linearGradient>
    <linearGradient id="bean" x1="0" y1="0" x2="1" y2="1">
      <stop offset="0" stop-color="#2A2A2A" />
      <stop offset="0.55" stop-color="#090909" />
      <stop offset="1" stop-color="#171717" />
    </linearGradient>
  </defs>

  <rect width="256" height="256" rx="64" fill="url(#bg)" />
  <rect x="18" y="18" width="220" height="220" rx="56" fill="#FFFFFF0A" stroke="#FFFFFF1F" stroke-width="2" />

  <circle cx="128" cy="128" r="88" fill="#0B0B0B" stroke="url(#ring)" stroke-width="8" />
  <circle cx="128" cy="128" r="78" fill="#FFFFFF08" />

  <g transform="rotate(-18 128 130)">
    <ellipse cx="128" cy="130" rx="50" ry="72" fill="url(#bean)" stroke="#FFFFFF22" stroke-width="2" />
    <path d="M117 66C97 93 94 138 113 174C120 188 130 194 140 188C126 156 126 108 142 79C146 71 140 60 131 59C126 59 121 61 117 66Z" fill="#A77A47B0" />
    <path d="M114 68C96 95 93 138 112 171" fill="none" stroke="#F4D7A0B5" stroke-width="4" stroke-linecap="round" />
    <path d="M102 86C96 104 96 126 101 145" fill="none" stroke="#FFFFFF30" stroke-width="3" stroke-linecap="round" />
  </g>

  <circle cx="89" cy="78" r="8" fill="#FFE4B9" opacity="0.9" />
</svg>
